<mxfile host="Electron" modified="2023-12-21T19:48:45.516Z" agent="Mozilla/5.0 (Windows NT 10.0; Win64; x64) AppleWebKit/537.36 (KHTML, like Gecko) draw.io/22.1.11 Chrome/114.0.5735.289 Electron/25.9.8 Safari/537.36" etag="5nftSFYGgzluuxmPxCRx" version="22.1.11" type="device">
  <diagram name="Страница — 1" id="iccQO1knJx4fQwvvYH7b">
    <mxGraphModel dx="2049" dy="1243" grid="1" gridSize="10" guides="1" tooltips="1" connect="1" arrows="1" fold="1" page="1" pageScale="1" pageWidth="827" pageHeight="1169" math="0" shadow="0">
      <root>
        <mxCell id="0" />
        <mxCell id="1" parent="0" />
        <mxCell id="4vGNX6ftqIx7hebFvJX0-1" value="Adapter" style="shape=module;align=left;spacingLeft=20;align=center;verticalAlign=top;whiteSpace=wrap;html=1;fillColor=#fff2cc;strokeColor=#d6b656;" parent="1" vertex="1">
          <mxGeometry x="29" y="10" width="1411" height="160" as="geometry" />
        </mxCell>
        <mxCell id="4vGNX6ftqIx7hebFvJX0-2" value="Logic" style="shape=module;align=left;spacingLeft=20;align=center;verticalAlign=top;whiteSpace=wrap;html=1;fillColor=#d5e8d4;strokeColor=#82b366;" parent="1" vertex="1">
          <mxGeometry x="29" y="180" width="1411" height="500" as="geometry" />
        </mxCell>
        <mxCell id="4vGNX6ftqIx7hebFvJX0-3" value="Data" style="shape=module;align=left;spacingLeft=20;align=center;verticalAlign=top;whiteSpace=wrap;html=1;fillColor=#dae8fc;strokeColor=#6c8ebf;" parent="1" vertex="1">
          <mxGeometry x="29" y="690" width="1411" height="190" as="geometry" />
        </mxCell>
        <mxCell id="Mzm_h6cvFY5Xjswd9-C1-1" value="TokenAdapter" style="swimlane;fontStyle=1;align=center;verticalAlign=top;childLayout=stackLayout;horizontal=1;startSize=26;horizontalStack=0;resizeParent=1;resizeParentMax=0;resizeLast=0;collapsible=1;marginBottom=0;whiteSpace=wrap;html=1;" parent="1" vertex="1">
          <mxGeometry x="100" y="20" width="300" height="140" as="geometry" />
        </mxCell>
        <mxCell id="Mzm_h6cvFY5Xjswd9-C1-2" value="- controller: iGetController" style="text;strokeColor=none;fillColor=none;align=left;verticalAlign=top;spacingLeft=4;spacingRight=4;overflow=hidden;rotatable=0;points=[[0,0.5],[1,0.5]];portConstraint=eastwest;whiteSpace=wrap;html=1;" parent="Mzm_h6cvFY5Xjswd9-C1-1" vertex="1">
          <mxGeometry y="26" width="300" height="26" as="geometry" />
        </mxCell>
        <mxCell id="Mzm_h6cvFY5Xjswd9-C1-3" value="" style="line;strokeWidth=1;fillColor=none;align=left;verticalAlign=middle;spacingTop=-1;spacingLeft=3;spacingRight=3;rotatable=0;labelPosition=right;points=[];portConstraint=eastwest;strokeColor=inherit;" parent="Mzm_h6cvFY5Xjswd9-C1-1" vertex="1">
          <mxGeometry y="52" width="300" height="8" as="geometry" />
        </mxCell>
        <mxCell id="Mzm_h6cvFY5Xjswd9-C1-4" value="+ getToken(user): Token&lt;br&gt;+ checkToken(Token): bool&lt;br&gt;+ deleteToken(Token): void&lt;br&gt;+ addOperation(Operation): void&lt;br style=&quot;border-color: var(--border-color); text-align: center;&quot;&gt;+ delOperation(Operation): void" style="text;strokeColor=none;fillColor=none;align=left;verticalAlign=top;spacingLeft=4;spacingRight=4;overflow=hidden;rotatable=0;points=[[0,0.5],[1,0.5]];portConstraint=eastwest;whiteSpace=wrap;html=1;" parent="Mzm_h6cvFY5Xjswd9-C1-1" vertex="1">
          <mxGeometry y="60" width="300" height="80" as="geometry" />
        </mxCell>
        <mxCell id="Mzm_h6cvFY5Xjswd9-C1-5" value="TokenRepo" style="swimlane;fontStyle=1;align=center;verticalAlign=top;childLayout=stackLayout;horizontal=1;startSize=26;horizontalStack=0;resizeParent=1;resizeParentMax=0;resizeLast=0;collapsible=1;marginBottom=0;whiteSpace=wrap;html=1;" parent="1" vertex="1">
          <mxGeometry x="99" y="700" width="301" height="170" as="geometry" />
        </mxCell>
        <mxCell id="Mzm_h6cvFY5Xjswd9-C1-6" value="- controller: iGetController" style="text;strokeColor=none;fillColor=none;align=left;verticalAlign=top;spacingLeft=4;spacingRight=4;overflow=hidden;rotatable=0;points=[[0,0.5],[1,0.5]];portConstraint=eastwest;whiteSpace=wrap;html=1;" parent="Mzm_h6cvFY5Xjswd9-C1-5" vertex="1">
          <mxGeometry y="26" width="301" height="26" as="geometry" />
        </mxCell>
        <mxCell id="Mzm_h6cvFY5Xjswd9-C1-7" value="" style="line;strokeWidth=1;fillColor=none;align=left;verticalAlign=middle;spacingTop=-1;spacingLeft=3;spacingRight=3;rotatable=0;labelPosition=right;points=[];portConstraint=eastwest;strokeColor=inherit;" parent="Mzm_h6cvFY5Xjswd9-C1-5" vertex="1">
          <mxGeometry y="52" width="301" height="8" as="geometry" />
        </mxCell>
        <mxCell id="Mzm_h6cvFY5Xjswd9-C1-8" value="+ addToken(user): Token&lt;br style=&quot;border-color: var(--border-color);&quot;&gt;+ checkToken(Token): bool&lt;br style=&quot;border-color: var(--border-color);&quot;&gt;+ deleteToken(Token): void&lt;br&gt;+ addOperation(Operation): void&lt;br style=&quot;border-color: var(--border-color);&quot;&gt;+ getOperation(int): Operation&lt;br style=&quot;border-color: var(--border-color); text-align: center;&quot;&gt;+ setOperation(Operation): void&lt;br style=&quot;border-color: var(--border-color); text-align: center;&quot;&gt;+ delOperation(Operation): void" style="text;strokeColor=none;fillColor=none;align=left;verticalAlign=top;spacingLeft=4;spacingRight=4;overflow=hidden;rotatable=0;points=[[0,0.5],[1,0.5]];portConstraint=eastwest;whiteSpace=wrap;html=1;" parent="Mzm_h6cvFY5Xjswd9-C1-5" vertex="1">
          <mxGeometry y="60" width="301" height="110" as="geometry" />
        </mxCell>
        <mxCell id="Mzm_h6cvFY5Xjswd9-C1-9" value="&lt;p style=&quot;margin:0px;margin-top:4px;text-align:center;&quot;&gt;&lt;b&gt;&amp;lt;&amp;lt;Interface&amp;gt;&amp;gt;&lt;/b&gt;&lt;/p&gt;&lt;p style=&quot;margin:0px;margin-top:4px;text-align:center;&quot;&gt;&lt;b&gt;iAdapter&lt;/b&gt;&lt;/p&gt;&lt;hr size=&quot;1&quot;&gt;&lt;div style=&quot;height:2px;&quot;&gt;+ getToken(user): Token&lt;br style=&quot;border-color: var(--border-color);&quot;&gt;+ checkToken(Token): bool&lt;br style=&quot;border-color: var(--border-color);&quot;&gt;+ deleteToken(Token): void&lt;br style=&quot;border-color: var(--border-color);&quot;&gt;+ addOperation(Operation): void&lt;br style=&quot;border-color: var(--border-color); text-align: center;&quot;&gt;+ delOperation(Operation): void&lt;br&gt;&lt;/div&gt;" style="verticalAlign=top;align=left;overflow=fill;fontSize=12;fontFamily=Helvetica;html=1;whiteSpace=wrap;fillColor=#f8cecc;strokeColor=#b85450;" parent="1" vertex="1">
          <mxGeometry x="99" y="190" width="301" height="130" as="geometry" />
        </mxCell>
        <mxCell id="Mzm_h6cvFY5Xjswd9-C1-10" value="&lt;p style=&quot;margin:0px;margin-top:4px;text-align:center;&quot;&gt;&lt;b&gt;&amp;lt;&amp;lt;Interface&amp;gt;&amp;gt;&lt;/b&gt;&lt;/p&gt;&lt;p style=&quot;margin:0px;margin-top:4px;text-align:center;&quot;&gt;&lt;b&gt;iRepo&lt;/b&gt;&lt;/p&gt;&lt;hr size=&quot;1&quot;&gt;&lt;div style=&quot;height:2px;&quot;&gt;+ addToken(user): Token&lt;br style=&quot;border-color: var(--border-color);&quot;&gt;+ checkToken(Token): bool&lt;br style=&quot;border-color: var(--border-color);&quot;&gt;+ deleteToken(Token): void&lt;br style=&quot;border-color: var(--border-color);&quot;&gt;+ addOperation(Operation): void&lt;br style=&quot;border-color: var(--border-color);&quot;&gt;+ getOperation(int): Operation&lt;br style=&quot;border-color: var(--border-color); text-align: center;&quot;&gt;+ setOperation(Operation): void&lt;br style=&quot;border-color: var(--border-color); text-align: center;&quot;&gt;+ delOperation(Operation): void&lt;br&gt;&lt;/div&gt;" style="verticalAlign=top;align=left;overflow=fill;fontSize=12;fontFamily=Helvetica;html=1;whiteSpace=wrap;fillColor=#f8cecc;strokeColor=#b85450;" parent="1" vertex="1">
          <mxGeometry x="99" y="520" width="301" height="150" as="geometry" />
        </mxCell>
        <mxCell id="Mzm_h6cvFY5Xjswd9-C1-11" value="&lt;p style=&quot;margin:0px;margin-top:4px;text-align:center;&quot;&gt;&lt;b&gt;&amp;lt;&amp;lt;Interface&amp;gt;&amp;gt;&lt;/b&gt;&lt;/p&gt;&lt;p style=&quot;margin:0px;margin-top:4px;text-align:center;&quot;&gt;&lt;b&gt;iController&lt;/b&gt;&lt;/p&gt;&lt;hr size=&quot;1&quot;&gt;&lt;div style=&quot;height:2px;&quot;&gt;&lt;div style=&quot;&quot;&gt;+ update(): void&lt;br style=&quot;border-color: var(--border-color);&quot;&gt;+ getSchedule():&amp;nbsp;Schedule&lt;br style=&quot;border-color: var(--border-color);&quot;&gt;+ addOperation(Operation): void&lt;br style=&quot;border-color: var(--border-color);&quot;&gt;+ getOperation(int): Operation&lt;br style=&quot;border-color: var(--border-color); text-align: center;&quot;&gt;+ setOperation(Operation): void&lt;br style=&quot;border-color: var(--border-color); text-align: center;&quot;&gt;+ delOperation(Operation): void&lt;br style=&quot;border-color: var(--border-color);&quot;&gt;+ getToken(user): Token&lt;br style=&quot;border-color: var(--border-color);&quot;&gt;+ checkToken(Token): bool&lt;br style=&quot;border-color: var(--border-color);&quot;&gt;+ deleteToken(Token): void&lt;br&gt;&lt;/div&gt;&lt;/div&gt;" style="verticalAlign=top;align=left;overflow=fill;fontSize=12;fontFamily=Helvetica;html=1;whiteSpace=wrap;fillColor=#f8cecc;strokeColor=#b85450;" parent="1" vertex="1">
          <mxGeometry x="99" y="330" width="301" height="180" as="geometry" />
        </mxCell>
        <mxCell id="Mzm_h6cvFY5Xjswd9-C1-12" value="&lt;div style=&quot;&quot;&gt;&lt;span style=&quot;background-color: initial;&quot;&gt;Domains&lt;/span&gt;&lt;/div&gt;&lt;div style=&quot;&quot;&gt;&lt;span style=&quot;background-color: initial;&quot;&gt;&lt;br&gt;&lt;/span&gt;&lt;/div&gt;&lt;div style=&quot;&quot;&gt;&lt;span style=&quot;background-color: initial;&quot;&gt;&lt;br&gt;&lt;/span&gt;&lt;/div&gt;&lt;div style=&quot;&quot;&gt;&lt;span style=&quot;background-color: initial;&quot;&gt;&lt;br&gt;&lt;/span&gt;&lt;/div&gt;&lt;div style=&quot;&quot;&gt;&lt;span style=&quot;background-color: initial;&quot;&gt;&lt;br&gt;&lt;/span&gt;&lt;/div&gt;&lt;div style=&quot;&quot;&gt;&lt;span style=&quot;background-color: initial;&quot;&gt;&lt;br&gt;&lt;/span&gt;&lt;/div&gt;&lt;div style=&quot;&quot;&gt;&lt;span style=&quot;background-color: initial;&quot;&gt;&lt;br&gt;&lt;/span&gt;&lt;/div&gt;&lt;div style=&quot;&quot;&gt;&lt;span style=&quot;background-color: initial;&quot;&gt;&lt;br&gt;&lt;/span&gt;&lt;/div&gt;&lt;div style=&quot;&quot;&gt;&lt;span style=&quot;background-color: initial;&quot;&gt;&lt;br&gt;&lt;/span&gt;&lt;/div&gt;&lt;div style=&quot;&quot;&gt;&lt;span style=&quot;background-color: initial;&quot;&gt;&lt;br&gt;&lt;/span&gt;&lt;/div&gt;&lt;div style=&quot;&quot;&gt;&lt;span style=&quot;background-color: initial;&quot;&gt;&lt;br&gt;&lt;/span&gt;&lt;/div&gt;&lt;div style=&quot;&quot;&gt;&lt;span style=&quot;background-color: initial;&quot;&gt;&lt;br&gt;&lt;/span&gt;&lt;/div&gt;&lt;div style=&quot;&quot;&gt;&lt;span style=&quot;background-color: initial;&quot;&gt;&lt;br&gt;&lt;/span&gt;&lt;/div&gt;&lt;div style=&quot;&quot;&gt;&lt;span style=&quot;background-color: initial;&quot;&gt;&lt;br&gt;&lt;/span&gt;&lt;/div&gt;&lt;div style=&quot;&quot;&gt;&lt;span style=&quot;background-color: initial;&quot;&gt;&lt;br&gt;&lt;/span&gt;&lt;/div&gt;&lt;div style=&quot;&quot;&gt;&lt;span style=&quot;background-color: initial;&quot;&gt;&lt;br&gt;&lt;/span&gt;&lt;/div&gt;&lt;div style=&quot;&quot;&gt;&lt;span style=&quot;background-color: initial;&quot;&gt;&lt;br&gt;&lt;/span&gt;&lt;/div&gt;&lt;div style=&quot;&quot;&gt;&lt;span style=&quot;background-color: initial;&quot;&gt;&lt;br&gt;&lt;/span&gt;&lt;/div&gt;&lt;div style=&quot;&quot;&gt;&lt;span style=&quot;background-color: initial;&quot;&gt;&lt;br&gt;&lt;/span&gt;&lt;/div&gt;&lt;div style=&quot;&quot;&gt;&lt;span style=&quot;background-color: initial;&quot;&gt;&lt;br&gt;&lt;/span&gt;&lt;/div&gt;&lt;div style=&quot;&quot;&gt;&lt;span style=&quot;background-color: initial;&quot;&gt;&lt;br&gt;&lt;/span&gt;&lt;/div&gt;&lt;div style=&quot;&quot;&gt;&lt;span style=&quot;background-color: initial;&quot;&gt;&lt;br&gt;&lt;/span&gt;&lt;/div&gt;&lt;div style=&quot;&quot;&gt;&lt;span style=&quot;background-color: initial;&quot;&gt;&lt;br&gt;&lt;/span&gt;&lt;/div&gt;&lt;div style=&quot;&quot;&gt;&lt;span style=&quot;background-color: initial;&quot;&gt;&lt;br&gt;&lt;/span&gt;&lt;/div&gt;&lt;div style=&quot;&quot;&gt;&lt;span style=&quot;background-color: initial;&quot;&gt;&lt;br&gt;&lt;/span&gt;&lt;/div&gt;&lt;div style=&quot;&quot;&gt;&lt;span style=&quot;background-color: initial;&quot;&gt;&lt;br&gt;&lt;/span&gt;&lt;/div&gt;&lt;div style=&quot;&quot;&gt;&lt;span style=&quot;background-color: initial;&quot;&gt;&lt;br&gt;&lt;/span&gt;&lt;/div&gt;&lt;div style=&quot;&quot;&gt;&lt;span style=&quot;background-color: initial;&quot;&gt;&lt;br&gt;&lt;/span&gt;&lt;/div&gt;" style="shape=folder;fontStyle=1;spacingTop=10;tabWidth=40;tabHeight=14;tabPosition=left;html=1;whiteSpace=wrap;align=center;fillColor=#e1d5e7;strokeColor=#9673a6;" parent="1" vertex="1">
          <mxGeometry x="640" y="190" width="780" height="460" as="geometry" />
        </mxCell>
        <mxCell id="Mzm_h6cvFY5Xjswd9-C1-13" value="Controller" style="swimlane;fontStyle=1;align=center;verticalAlign=top;childLayout=stackLayout;horizontal=1;startSize=26;horizontalStack=0;resizeParent=1;resizeParentMax=0;resizeLast=0;collapsible=1;marginBottom=0;whiteSpace=wrap;html=1;" parent="1" vertex="1">
          <mxGeometry x="445" y="340" width="190" height="210" as="geometry" />
        </mxCell>
        <mxCell id="Mzm_h6cvFY5Xjswd9-C1-14" value="- adapter: iAdaper&lt;br&gt;- repo: iRepo" style="text;strokeColor=none;fillColor=none;align=left;verticalAlign=top;spacingLeft=4;spacingRight=4;overflow=hidden;rotatable=0;points=[[0,0.5],[1,0.5]];portConstraint=eastwest;whiteSpace=wrap;html=1;" parent="Mzm_h6cvFY5Xjswd9-C1-13" vertex="1">
          <mxGeometry y="26" width="190" height="34" as="geometry" />
        </mxCell>
        <mxCell id="Mzm_h6cvFY5Xjswd9-C1-15" value="" style="line;strokeWidth=1;fillColor=none;align=left;verticalAlign=middle;spacingTop=-1;spacingLeft=3;spacingRight=3;rotatable=0;labelPosition=right;points=[];portConstraint=eastwest;strokeColor=inherit;" parent="Mzm_h6cvFY5Xjswd9-C1-13" vertex="1">
          <mxGeometry y="60" width="190" height="8" as="geometry" />
        </mxCell>
        <mxCell id="Mzm_h6cvFY5Xjswd9-C1-16" value="+ update(): void&lt;br style=&quot;border-color: var(--border-color);&quot;&gt;+ getSchedule():&amp;nbsp;Schedule&lt;br style=&quot;border-color: var(--border-color);&quot;&gt;+ addOperation(Operation): void&lt;br style=&quot;border-color: var(--border-color);&quot;&gt;+ getOperation(int): Operation&lt;br style=&quot;border-color: var(--border-color); text-align: center;&quot;&gt;+ setOperation(Operation): void&lt;br style=&quot;border-color: var(--border-color); text-align: center;&quot;&gt;+ delOperation(Operation): void&lt;br&gt;+ getToken(user): Token&lt;br style=&quot;border-color: var(--border-color);&quot;&gt;+ checkToken(Token): bool&lt;br style=&quot;border-color: var(--border-color);&quot;&gt;+ deleteToken(Token): void" style="text;strokeColor=none;fillColor=none;align=left;verticalAlign=top;spacingLeft=4;spacingRight=4;overflow=hidden;rotatable=0;points=[[0,0.5],[1,0.5]];portConstraint=eastwest;whiteSpace=wrap;html=1;" parent="Mzm_h6cvFY5Xjswd9-C1-13" vertex="1">
          <mxGeometry y="68" width="190" height="142" as="geometry" />
        </mxCell>
        <mxCell id="Mzm_h6cvFY5Xjswd9-C1-17" value="Location" style="swimlane;fontStyle=1;align=center;verticalAlign=top;childLayout=stackLayout;horizontal=1;startSize=26;horizontalStack=0;resizeParent=1;resizeParentMax=0;resizeLast=0;collapsible=1;marginBottom=0;whiteSpace=wrap;html=1;" parent="1" vertex="1">
          <mxGeometry x="1020" y="507" width="160" height="136" as="geometry" />
        </mxCell>
        <mxCell id="Mzm_h6cvFY5Xjswd9-C1-18" value="+ name: String&lt;br&gt;+ roomArea: int&lt;br&gt;+ floor: int" style="text;strokeColor=none;fillColor=none;align=left;verticalAlign=top;spacingLeft=4;spacingRight=4;overflow=hidden;rotatable=0;points=[[0,0.5],[1,0.5]];portConstraint=eastwest;whiteSpace=wrap;html=1;" parent="Mzm_h6cvFY5Xjswd9-C1-17" vertex="1">
          <mxGeometry y="26" width="160" height="50" as="geometry" />
        </mxCell>
        <mxCell id="Mzm_h6cvFY5Xjswd9-C1-19" value="" style="line;strokeWidth=1;fillColor=none;align=left;verticalAlign=middle;spacingTop=-1;spacingLeft=3;spacingRight=3;rotatable=0;labelPosition=right;points=[];portConstraint=eastwest;strokeColor=inherit;" parent="Mzm_h6cvFY5Xjswd9-C1-17" vertex="1">
          <mxGeometry y="76" width="160" height="8" as="geometry" />
        </mxCell>
        <mxCell id="Mzm_h6cvFY5Xjswd9-C1-20" value="+ getName(): String&lt;br&gt;+ getArea(): int&lt;br&gt;+ getFloor(): int" style="text;strokeColor=none;fillColor=none;align=left;verticalAlign=top;spacingLeft=4;spacingRight=4;overflow=hidden;rotatable=0;points=[[0,0.5],[1,0.5]];portConstraint=eastwest;whiteSpace=wrap;html=1;" parent="Mzm_h6cvFY5Xjswd9-C1-17" vertex="1">
          <mxGeometry y="84" width="160" height="52" as="geometry" />
        </mxCell>
        <mxCell id="Mzm_h6cvFY5Xjswd9-C1-22" value="" style="endArrow=none;html=1;edgeStyle=orthogonalEdgeStyle;rounded=0;exitX=1;exitY=0.5;exitDx=0;exitDy=0;entryX=0;entryY=0.5;entryDx=0;entryDy=0;entryPerimeter=0;" parent="1" source="Mzm_h6cvFY5Xjswd9-C1-6" target="pRqHBjgA3ks4pkUz7OMV-1" edge="1">
          <mxGeometry relative="1" as="geometry">
            <mxPoint x="269" y="743" as="sourcePoint" />
            <mxPoint x="490" y="755" as="targetPoint" />
          </mxGeometry>
        </mxCell>
        <mxCell id="Mzm_h6cvFY5Xjswd9-C1-27" value="User" style="swimlane;fontStyle=1;align=center;verticalAlign=top;childLayout=stackLayout;horizontal=1;startSize=26;horizontalStack=0;resizeParent=1;resizeParentMax=0;resizeLast=0;collapsible=1;marginBottom=0;whiteSpace=wrap;html=1;" parent="1" vertex="1">
          <mxGeometry x="650" y="530" width="108" height="110" as="geometry" />
        </mxCell>
        <mxCell id="Mzm_h6cvFY5Xjswd9-C1-28" value="- id: Int&lt;br&gt;- fio: String&lt;br&gt;- email: Strig&lt;br&gt;- address: String&lt;br&gt;- phone: int" style="text;strokeColor=none;fillColor=none;align=left;verticalAlign=top;spacingLeft=4;spacingRight=4;overflow=hidden;rotatable=0;points=[[0,0.5],[1,0.5]];portConstraint=eastwest;whiteSpace=wrap;html=1;" parent="Mzm_h6cvFY5Xjswd9-C1-27" vertex="1">
          <mxGeometry y="26" width="108" height="84" as="geometry" />
        </mxCell>
        <mxCell id="Mzm_h6cvFY5Xjswd9-C1-29" value="Locations" style="swimlane;fontStyle=1;align=center;verticalAlign=top;childLayout=stackLayout;horizontal=1;startSize=26;horizontalStack=0;resizeParent=1;resizeParentMax=0;resizeLast=0;collapsible=1;marginBottom=0;whiteSpace=wrap;html=1;" parent="1" vertex="1">
          <mxGeometry x="1210" y="510" width="178" height="130" as="geometry" />
        </mxCell>
        <mxCell id="Mzm_h6cvFY5Xjswd9-C1-30" value="- listLocation: List&amp;lt;Location&amp;gt;" style="text;strokeColor=none;fillColor=none;align=left;verticalAlign=top;spacingLeft=4;spacingRight=4;overflow=hidden;rotatable=0;points=[[0,0.5],[1,0.5]];portConstraint=eastwest;whiteSpace=wrap;html=1;" parent="Mzm_h6cvFY5Xjswd9-C1-29" vertex="1">
          <mxGeometry y="26" width="178" height="26" as="geometry" />
        </mxCell>
        <mxCell id="Mzm_h6cvFY5Xjswd9-C1-31" value="" style="line;strokeWidth=1;fillColor=none;align=left;verticalAlign=middle;spacingTop=-1;spacingLeft=3;spacingRight=3;rotatable=0;labelPosition=right;points=[];portConstraint=eastwest;strokeColor=inherit;" parent="Mzm_h6cvFY5Xjswd9-C1-29" vertex="1">
          <mxGeometry y="52" width="178" height="8" as="geometry" />
        </mxCell>
        <mxCell id="Mzm_h6cvFY5Xjswd9-C1-32" value="+ addLocation(Location): void&lt;br&gt;+ getLocation(String): Location&lt;br style=&quot;border-color: var(--border-color); text-align: center;&quot;&gt;+ setLocation(Location&lt;span style=&quot;text-align: center;&quot;&gt;): void&lt;/span&gt;&lt;br style=&quot;border-color: var(--border-color); text-align: center;&quot;&gt;+ delLocation(Location): void" style="text;strokeColor=none;fillColor=none;align=left;verticalAlign=top;spacingLeft=4;spacingRight=4;overflow=hidden;rotatable=0;points=[[0,0.5],[1,0.5]];portConstraint=eastwest;whiteSpace=wrap;html=1;" parent="Mzm_h6cvFY5Xjswd9-C1-29" vertex="1">
          <mxGeometry y="60" width="178" height="70" as="geometry" />
        </mxCell>
        <mxCell id="Mzm_h6cvFY5Xjswd9-C1-33" value="Operation" style="swimlane;fontStyle=1;align=center;verticalAlign=top;childLayout=stackLayout;horizontal=1;startSize=26;horizontalStack=0;resizeParent=1;resizeParentMax=0;resizeLast=0;collapsible=1;marginBottom=0;whiteSpace=wrap;html=1;" parent="1" vertex="1">
          <mxGeometry x="870" y="238" width="100" height="130" as="geometry" />
        </mxCell>
        <mxCell id="Mzm_h6cvFY5Xjswd9-C1-34" value="- id: int&lt;br&gt;- date: Datetime&lt;br style=&quot;border-color: var(--border-color);&quot;&gt;- comandID: int&lt;br style=&quot;border-color: var(--border-color);&quot;&gt;- robotID: int&lt;br&gt;- tokenID: int" style="text;strokeColor=none;fillColor=none;align=left;verticalAlign=top;spacingLeft=4;spacingRight=4;overflow=hidden;rotatable=0;points=[[0,0.5],[1,0.5]];portConstraint=eastwest;whiteSpace=wrap;html=1;" parent="Mzm_h6cvFY5Xjswd9-C1-33" vertex="1">
          <mxGeometry y="26" width="100" height="74" as="geometry" />
        </mxCell>
        <mxCell id="Mzm_h6cvFY5Xjswd9-C1-35" value="" style="line;strokeWidth=1;fillColor=none;align=left;verticalAlign=middle;spacingTop=-1;spacingLeft=3;spacingRight=3;rotatable=0;labelPosition=right;points=[];portConstraint=eastwest;strokeColor=inherit;" parent="Mzm_h6cvFY5Xjswd9-C1-33" vertex="1">
          <mxGeometry y="100" width="100" height="8" as="geometry" />
        </mxCell>
        <mxCell id="Mzm_h6cvFY5Xjswd9-C1-36" value="+&amp;nbsp;" style="text;strokeColor=none;fillColor=none;align=left;verticalAlign=top;spacingLeft=4;spacingRight=4;overflow=hidden;rotatable=0;points=[[0,0.5],[1,0.5]];portConstraint=eastwest;whiteSpace=wrap;html=1;" parent="Mzm_h6cvFY5Xjswd9-C1-33" vertex="1">
          <mxGeometry y="108" width="100" height="22" as="geometry" />
        </mxCell>
        <mxCell id="Mzm_h6cvFY5Xjswd9-C1-37" value="1" style="endArrow=open;html=1;endSize=12;startArrow=diamondThin;startSize=14;startFill=0;edgeStyle=orthogonalEdgeStyle;align=left;verticalAlign=bottom;rounded=0;exitX=1.003;exitY=0.784;exitDx=0;exitDy=0;exitPerimeter=0;entryX=1;entryY=0.5;entryDx=0;entryDy=0;" parent="1" source="pRqHBjgA3ks4pkUz7OMV-12" target="Mzm_h6cvFY5Xjswd9-C1-30" edge="1">
          <mxGeometry x="-0.7507" relative="1" as="geometry">
            <mxPoint x="1400" y="474" as="sourcePoint" />
            <mxPoint x="1400" y="549" as="targetPoint" />
            <Array as="points">
              <mxPoint x="1410" y="474" />
              <mxPoint x="1410" y="549" />
            </Array>
            <mxPoint as="offset" />
          </mxGeometry>
        </mxCell>
        <mxCell id="Mzm_h6cvFY5Xjswd9-C1-38" value="1" style="endArrow=open;html=1;endSize=12;startArrow=diamondThin;startSize=14;startFill=0;edgeStyle=orthogonalEdgeStyle;align=left;verticalAlign=bottom;rounded=0;exitX=-0.005;exitY=0.802;exitDx=0;exitDy=0;entryX=1;entryY=0.094;entryDx=0;entryDy=0;entryPerimeter=0;exitPerimeter=0;" parent="1" source="pRqHBjgA3ks4pkUz7OMV-14" target="Mzm_h6cvFY5Xjswd9-C1-27" edge="1">
          <mxGeometry x="-0.7507" relative="1" as="geometry">
            <mxPoint x="1320" y="735" as="sourcePoint" />
            <mxPoint x="1273" y="550" as="targetPoint" />
            <Array as="points">
              <mxPoint x="780" y="629" />
              <mxPoint x="780" y="540" />
            </Array>
            <mxPoint as="offset" />
          </mxGeometry>
        </mxCell>
        <mxCell id="Mzm_h6cvFY5Xjswd9-C1-41" value="" style="endArrow=none;html=1;edgeStyle=orthogonalEdgeStyle;rounded=0;exitX=0;exitY=0.5;exitDx=0;exitDy=0;entryX=1;entryY=0.081;entryDx=0;entryDy=0;entryPerimeter=0;" parent="1" source="Mzm_h6cvFY5Xjswd9-C1-30" target="Mzm_h6cvFY5Xjswd9-C1-17" edge="1">
          <mxGeometry relative="1" as="geometry">
            <mxPoint x="1039" y="661" as="sourcePoint" />
            <mxPoint x="1102" y="499" as="targetPoint" />
          </mxGeometry>
        </mxCell>
        <mxCell id="Mzm_h6cvFY5Xjswd9-C1-52" value="Extends" style="endArrow=block;endSize=16;endFill=0;html=1;rounded=0;exitX=0;exitY=0.046;exitDx=0;exitDy=0;entryX=1.002;entryY=0.116;entryDx=0;entryDy=0;entryPerimeter=0;exitPerimeter=0;" parent="1" source="Mzm_h6cvFY5Xjswd9-C1-13" target="Mzm_h6cvFY5Xjswd9-C1-11" edge="1">
          <mxGeometry width="160" relative="1" as="geometry">
            <mxPoint x="630" y="420" as="sourcePoint" />
            <mxPoint x="790" y="420" as="targetPoint" />
          </mxGeometry>
        </mxCell>
        <mxCell id="Mzm_h6cvFY5Xjswd9-C1-53" value="Extends" style="endArrow=block;endSize=16;endFill=0;html=1;rounded=0;exitX=0.499;exitY=1.003;exitDx=0;exitDy=0;entryX=0.5;entryY=0;entryDx=0;entryDy=0;exitPerimeter=0;" parent="1" source="Mzm_h6cvFY5Xjswd9-C1-4" target="Mzm_h6cvFY5Xjswd9-C1-9" edge="1">
          <mxGeometry width="160" relative="1" as="geometry">
            <mxPoint x="378" y="368" as="sourcePoint" />
            <mxPoint x="269" y="380" as="targetPoint" />
          </mxGeometry>
        </mxCell>
        <mxCell id="Mzm_h6cvFY5Xjswd9-C1-54" value="Extends" style="endArrow=block;endSize=16;endFill=0;html=1;rounded=0;exitX=0.5;exitY=0;exitDx=0;exitDy=0;entryX=0.5;entryY=1;entryDx=0;entryDy=0;" parent="1" source="Mzm_h6cvFY5Xjswd9-C1-5" target="Mzm_h6cvFY5Xjswd9-C1-10" edge="1">
          <mxGeometry width="160" relative="1" as="geometry">
            <mxPoint x="388" y="378" as="sourcePoint" />
            <mxPoint x="279" y="390" as="targetPoint" />
          </mxGeometry>
        </mxCell>
        <mxCell id="Mzm_h6cvFY5Xjswd9-C1-55" value="1" style="endArrow=open;html=1;endSize=12;startArrow=diamondThin;startSize=14;startFill=0;edgeStyle=orthogonalEdgeStyle;align=left;verticalAlign=bottom;rounded=0;exitX=-0.002;exitY=0.388;exitDx=0;exitDy=0;entryX=1;entryY=0.25;entryDx=0;entryDy=0;exitPerimeter=0;" parent="1" source="Mzm_h6cvFY5Xjswd9-C1-14" target="Mzm_h6cvFY5Xjswd9-C1-9" edge="1">
          <mxGeometry x="-0.7507" relative="1" as="geometry">
            <mxPoint x="948" y="385" as="sourcePoint" />
            <mxPoint x="989" y="579" as="targetPoint" />
            <Array as="points" />
            <mxPoint as="offset" />
          </mxGeometry>
        </mxCell>
        <mxCell id="Mzm_h6cvFY5Xjswd9-C1-56" value="1" style="endArrow=open;html=1;endSize=12;startArrow=diamondThin;startSize=14;startFill=0;edgeStyle=orthogonalEdgeStyle;align=left;verticalAlign=bottom;rounded=0;entryX=1;entryY=0.25;entryDx=0;entryDy=0;exitX=-0.001;exitY=0.87;exitDx=0;exitDy=0;exitPerimeter=0;" parent="1" source="Mzm_h6cvFY5Xjswd9-C1-14" target="Mzm_h6cvFY5Xjswd9-C1-10" edge="1">
          <mxGeometry x="-0.7507" relative="1" as="geometry">
            <mxPoint x="370" y="369" as="sourcePoint" />
            <mxPoint x="269" y="233" as="targetPoint" />
            <Array as="points" />
            <mxPoint as="offset" />
          </mxGeometry>
        </mxCell>
        <mxCell id="Mzm_h6cvFY5Xjswd9-C1-57" value="1" style="endArrow=open;html=1;endSize=12;startArrow=diamondThin;startSize=14;startFill=0;edgeStyle=orthogonalEdgeStyle;align=left;verticalAlign=bottom;rounded=0;exitX=0;exitY=0.5;exitDx=0;exitDy=0;" parent="1" source="Mzm_h6cvFY5Xjswd9-C1-2" edge="1">
          <mxGeometry x="-0.7507" relative="1" as="geometry">
            <mxPoint x="378" y="389" as="sourcePoint" />
            <mxPoint x="99" y="340" as="targetPoint" />
            <Array as="points">
              <mxPoint x="70" y="59" />
              <mxPoint x="70" y="340" />
              <mxPoint x="99" y="340" />
            </Array>
            <mxPoint as="offset" />
          </mxGeometry>
        </mxCell>
        <mxCell id="Mzm_h6cvFY5Xjswd9-C1-58" value="1" style="endArrow=open;html=1;endSize=12;startArrow=diamondThin;startSize=14;startFill=0;edgeStyle=orthogonalEdgeStyle;align=left;verticalAlign=bottom;rounded=0;exitX=-0.002;exitY=0.087;exitDx=0;exitDy=0;exitPerimeter=0;entryX=-0.002;entryY=0.194;entryDx=0;entryDy=0;entryPerimeter=0;" parent="1" source="Mzm_h6cvFY5Xjswd9-C1-5" target="Mzm_h6cvFY5Xjswd9-C1-11" edge="1">
          <mxGeometry x="-0.8382" relative="1" as="geometry">
            <mxPoint x="110" y="69" as="sourcePoint" />
            <mxPoint x="100" y="361" as="targetPoint" />
            <Array as="points">
              <mxPoint x="70" y="715" />
              <mxPoint x="70" y="365" />
            </Array>
            <mxPoint as="offset" />
          </mxGeometry>
        </mxCell>
        <mxCell id="Mzm_h6cvFY5Xjswd9-C1-59" value="" style="endArrow=none;html=1;edgeStyle=orthogonalEdgeStyle;rounded=0;entryX=0;entryY=0.5;entryDx=0;entryDy=0;exitX=1.001;exitY=0.192;exitDx=0;exitDy=0;exitPerimeter=0;" parent="1" source="Mzm_h6cvFY5Xjswd9-C1-16" target="pRqHBjgA3ks4pkUz7OMV-27" edge="1">
          <mxGeometry relative="1" as="geometry">
            <mxPoint x="530" y="350" as="sourcePoint" />
            <mxPoint x="428" y="729" as="targetPoint" />
            <Array as="points">
              <mxPoint x="650" y="435" />
              <mxPoint x="650" y="276" />
            </Array>
          </mxGeometry>
        </mxCell>
        <mxCell id="pRqHBjgA3ks4pkUz7OMV-1" value="DB" style="shape=cylinder3;whiteSpace=wrap;html=1;boundedLbl=1;backgroundOutline=1;size=15;" vertex="1" parent="1">
          <mxGeometry x="510" y="699" width="60" height="80" as="geometry" />
        </mxCell>
        <mxCell id="pRqHBjgA3ks4pkUz7OMV-2" value="Comand" style="swimlane;fontStyle=1;align=center;verticalAlign=top;childLayout=stackLayout;horizontal=1;startSize=26;horizontalStack=0;resizeParent=1;resizeParentMax=0;resizeLast=0;collapsible=1;marginBottom=0;whiteSpace=wrap;html=1;" vertex="1" parent="1">
          <mxGeometry x="1290" y="260" width="108" height="70" as="geometry" />
        </mxCell>
        <mxCell id="pRqHBjgA3ks4pkUz7OMV-3" value="- id: Int&lt;br&gt;- name: String" style="text;strokeColor=none;fillColor=none;align=left;verticalAlign=top;spacingLeft=4;spacingRight=4;overflow=hidden;rotatable=0;points=[[0,0.5],[1,0.5]];portConstraint=eastwest;whiteSpace=wrap;html=1;" vertex="1" parent="pRqHBjgA3ks4pkUz7OMV-2">
          <mxGeometry y="26" width="108" height="44" as="geometry" />
        </mxCell>
        <mxCell id="pRqHBjgA3ks4pkUz7OMV-4" value="Comands" style="swimlane;fontStyle=1;align=center;verticalAlign=top;childLayout=stackLayout;horizontal=1;startSize=26;horizontalStack=0;resizeParent=1;resizeParentMax=0;resizeLast=0;collapsible=1;marginBottom=0;whiteSpace=wrap;html=1;" vertex="1" parent="1">
          <mxGeometry x="1100" y="230" width="180" height="130" as="geometry" />
        </mxCell>
        <mxCell id="pRqHBjgA3ks4pkUz7OMV-5" value="- listCom: List&amp;lt;Comand&amp;gt;" style="text;strokeColor=none;fillColor=none;align=left;verticalAlign=top;spacingLeft=4;spacingRight=4;overflow=hidden;rotatable=0;points=[[0,0.5],[1,0.5]];portConstraint=eastwest;whiteSpace=wrap;html=1;" vertex="1" parent="pRqHBjgA3ks4pkUz7OMV-4">
          <mxGeometry y="26" width="180" height="26" as="geometry" />
        </mxCell>
        <mxCell id="pRqHBjgA3ks4pkUz7OMV-6" value="" style="line;strokeWidth=1;fillColor=none;align=left;verticalAlign=middle;spacingTop=-1;spacingLeft=3;spacingRight=3;rotatable=0;labelPosition=right;points=[];portConstraint=eastwest;strokeColor=inherit;" vertex="1" parent="pRqHBjgA3ks4pkUz7OMV-4">
          <mxGeometry y="52" width="180" height="8" as="geometry" />
        </mxCell>
        <mxCell id="pRqHBjgA3ks4pkUz7OMV-7" value="+ addComand(Comand): void&lt;br&gt;+ getComand(String):&amp;nbsp;Comand&lt;br style=&quot;border-color: var(--border-color); text-align: center;&quot;&gt;+ setComand(Comand&lt;span style=&quot;text-align: center;&quot;&gt;): void&lt;/span&gt;&lt;br style=&quot;border-color: var(--border-color); text-align: center;&quot;&gt;+ delComand(Comand): void" style="text;strokeColor=none;fillColor=none;align=left;verticalAlign=top;spacingLeft=4;spacingRight=4;overflow=hidden;rotatable=0;points=[[0,0.5],[1,0.5]];portConstraint=eastwest;whiteSpace=wrap;html=1;" vertex="1" parent="pRqHBjgA3ks4pkUz7OMV-4">
          <mxGeometry y="60" width="180" height="70" as="geometry" />
        </mxCell>
        <mxCell id="pRqHBjgA3ks4pkUz7OMV-8" value="" style="endArrow=none;html=1;edgeStyle=orthogonalEdgeStyle;rounded=0;exitX=1;exitY=0.5;exitDx=0;exitDy=0;entryX=0;entryY=0.25;entryDx=0;entryDy=0;" edge="1" parent="1" source="pRqHBjgA3ks4pkUz7OMV-5" target="pRqHBjgA3ks4pkUz7OMV-2">
          <mxGeometry relative="1" as="geometry">
            <mxPoint x="1163" y="579" as="sourcePoint" />
            <mxPoint x="1197" y="553" as="targetPoint" />
          </mxGeometry>
        </mxCell>
        <mxCell id="pRqHBjgA3ks4pkUz7OMV-10" value="1" style="endArrow=open;html=1;endSize=12;startArrow=diamondThin;startSize=14;startFill=0;edgeStyle=orthogonalEdgeStyle;align=left;verticalAlign=bottom;rounded=0;exitX=0.999;exitY=0.564;exitDx=0;exitDy=0;entryX=-0.003;entryY=0.403;entryDx=0;entryDy=0;exitPerimeter=0;entryPerimeter=0;" edge="1" parent="1" source="Mzm_h6cvFY5Xjswd9-C1-34" target="pRqHBjgA3ks4pkUz7OMV-7">
          <mxGeometry x="-0.7507" relative="1" as="geometry">
            <mxPoint x="870" y="356" as="sourcePoint" />
            <mxPoint x="920" y="260" as="targetPoint" />
            <Array as="points">
              <mxPoint x="1020" y="306" />
              <mxPoint x="1020" y="318" />
            </Array>
            <mxPoint as="offset" />
          </mxGeometry>
        </mxCell>
        <mxCell id="pRqHBjgA3ks4pkUz7OMV-11" value="Robot" style="swimlane;fontStyle=1;align=center;verticalAlign=top;childLayout=stackLayout;horizontal=1;startSize=26;horizontalStack=0;resizeParent=1;resizeParentMax=0;resizeLast=0;collapsible=1;marginBottom=0;whiteSpace=wrap;html=1;" vertex="1" parent="1">
          <mxGeometry x="1280" y="390" width="108" height="100" as="geometry" />
        </mxCell>
        <mxCell id="pRqHBjgA3ks4pkUz7OMV-12" value="- id: Int&lt;br&gt;- name: String&lt;br&gt;- model: Strig&lt;br&gt;- location: String" style="text;strokeColor=none;fillColor=none;align=left;verticalAlign=top;spacingLeft=4;spacingRight=4;overflow=hidden;rotatable=0;points=[[0,0.5],[1,0.5]];portConstraint=eastwest;whiteSpace=wrap;html=1;" vertex="1" parent="pRqHBjgA3ks4pkUz7OMV-11">
          <mxGeometry y="26" width="108" height="74" as="geometry" />
        </mxCell>
        <mxCell id="pRqHBjgA3ks4pkUz7OMV-13" value="Token" style="swimlane;fontStyle=1;align=center;verticalAlign=top;childLayout=stackLayout;horizontal=1;startSize=26;horizontalStack=0;resizeParent=1;resizeParentMax=0;resizeLast=0;collapsible=1;marginBottom=0;whiteSpace=wrap;html=1;" vertex="1" parent="1">
          <mxGeometry x="820" y="560" width="120" height="80" as="geometry" />
        </mxCell>
        <mxCell id="pRqHBjgA3ks4pkUz7OMV-14" value="- id: Int&lt;br&gt;- tokenName: String&lt;br&gt;- userID: int" style="text;strokeColor=none;fillColor=none;align=left;verticalAlign=top;spacingLeft=4;spacingRight=4;overflow=hidden;rotatable=0;points=[[0,0.5],[1,0.5]];portConstraint=eastwest;whiteSpace=wrap;html=1;" vertex="1" parent="pRqHBjgA3ks4pkUz7OMV-13">
          <mxGeometry y="26" width="120" height="54" as="geometry" />
        </mxCell>
        <mxCell id="pRqHBjgA3ks4pkUz7OMV-15" value="Robots" style="swimlane;fontStyle=1;align=center;verticalAlign=top;childLayout=stackLayout;horizontal=1;startSize=26;horizontalStack=0;resizeParent=1;resizeParentMax=0;resizeLast=0;collapsible=1;marginBottom=0;whiteSpace=wrap;html=1;" vertex="1" parent="1">
          <mxGeometry x="1020" y="365" width="174" height="130" as="geometry" />
        </mxCell>
        <mxCell id="pRqHBjgA3ks4pkUz7OMV-16" value="- listRobot: List&amp;lt;Robot&amp;gt;" style="text;strokeColor=none;fillColor=none;align=left;verticalAlign=top;spacingLeft=4;spacingRight=4;overflow=hidden;rotatable=0;points=[[0,0.5],[1,0.5]];portConstraint=eastwest;whiteSpace=wrap;html=1;" vertex="1" parent="pRqHBjgA3ks4pkUz7OMV-15">
          <mxGeometry y="26" width="174" height="24" as="geometry" />
        </mxCell>
        <mxCell id="pRqHBjgA3ks4pkUz7OMV-17" value="" style="line;strokeWidth=1;fillColor=none;align=left;verticalAlign=middle;spacingTop=-1;spacingLeft=3;spacingRight=3;rotatable=0;labelPosition=right;points=[];portConstraint=eastwest;strokeColor=inherit;" vertex="1" parent="pRqHBjgA3ks4pkUz7OMV-15">
          <mxGeometry y="50" width="174" height="8" as="geometry" />
        </mxCell>
        <mxCell id="pRqHBjgA3ks4pkUz7OMV-18" value="+ addRobot(Robot): void&lt;br&gt;+ getRobot(String): Robot&lt;br style=&quot;border-color: var(--border-color); text-align: center;&quot;&gt;+ setRobot(Robot&lt;span style=&quot;text-align: center;&quot;&gt;): void&lt;/span&gt;&lt;br style=&quot;border-color: var(--border-color); text-align: center;&quot;&gt;+ delRobot(Robot): void" style="text;strokeColor=none;fillColor=none;align=left;verticalAlign=top;spacingLeft=4;spacingRight=4;overflow=hidden;rotatable=0;points=[[0,0.5],[1,0.5]];portConstraint=eastwest;whiteSpace=wrap;html=1;" vertex="1" parent="pRqHBjgA3ks4pkUz7OMV-15">
          <mxGeometry y="58" width="174" height="72" as="geometry" />
        </mxCell>
        <mxCell id="pRqHBjgA3ks4pkUz7OMV-19" value="" style="endArrow=none;html=1;edgeStyle=orthogonalEdgeStyle;rounded=0;exitX=0.001;exitY=0.136;exitDx=0;exitDy=0;entryX=1;entryY=0.5;entryDx=0;entryDy=0;exitPerimeter=0;" edge="1" parent="1" source="pRqHBjgA3ks4pkUz7OMV-11" target="pRqHBjgA3ks4pkUz7OMV-16">
          <mxGeometry relative="1" as="geometry">
            <mxPoint x="1224" y="559" as="sourcePoint" />
            <mxPoint x="1190" y="528" as="targetPoint" />
          </mxGeometry>
        </mxCell>
        <mxCell id="pRqHBjgA3ks4pkUz7OMV-20" value="1" style="endArrow=open;html=1;endSize=12;startArrow=diamondThin;startSize=14;startFill=0;edgeStyle=orthogonalEdgeStyle;align=left;verticalAlign=bottom;rounded=0;entryX=-0.003;entryY=0.386;entryDx=0;entryDy=0;entryPerimeter=0;exitX=0.998;exitY=0.784;exitDx=0;exitDy=0;exitPerimeter=0;" edge="1" parent="1" source="Mzm_h6cvFY5Xjswd9-C1-34" target="pRqHBjgA3ks4pkUz7OMV-18">
          <mxGeometry x="-0.7507" relative="1" as="geometry">
            <mxPoint x="860" y="360" as="sourcePoint" />
            <mxPoint x="1130" y="289" as="targetPoint" />
            <Array as="points">
              <mxPoint x="1000" y="322" />
              <mxPoint x="1000" y="451" />
            </Array>
            <mxPoint as="offset" />
          </mxGeometry>
        </mxCell>
        <mxCell id="pRqHBjgA3ks4pkUz7OMV-21" value="Tokens" style="swimlane;fontStyle=1;align=center;verticalAlign=top;childLayout=stackLayout;horizontal=1;startSize=26;horizontalStack=0;resizeParent=1;resizeParentMax=0;resizeLast=0;collapsible=1;marginBottom=0;whiteSpace=wrap;html=1;" vertex="1" parent="1">
          <mxGeometry x="820" y="420" width="150" height="130" as="geometry" />
        </mxCell>
        <mxCell id="pRqHBjgA3ks4pkUz7OMV-22" value="- listToken: List&amp;lt;Token&amp;gt;" style="text;strokeColor=none;fillColor=none;align=left;verticalAlign=top;spacingLeft=4;spacingRight=4;overflow=hidden;rotatable=0;points=[[0,0.5],[1,0.5]];portConstraint=eastwest;whiteSpace=wrap;html=1;" vertex="1" parent="pRqHBjgA3ks4pkUz7OMV-21">
          <mxGeometry y="26" width="150" height="26" as="geometry" />
        </mxCell>
        <mxCell id="pRqHBjgA3ks4pkUz7OMV-23" value="" style="line;strokeWidth=1;fillColor=none;align=left;verticalAlign=middle;spacingTop=-1;spacingLeft=3;spacingRight=3;rotatable=0;labelPosition=right;points=[];portConstraint=eastwest;strokeColor=inherit;" vertex="1" parent="pRqHBjgA3ks4pkUz7OMV-21">
          <mxGeometry y="52" width="150" height="8" as="geometry" />
        </mxCell>
        <mxCell id="pRqHBjgA3ks4pkUz7OMV-24" value="+ addToken(Token): void&lt;br&gt;+ getToken(String):&amp;nbsp;Token&lt;br style=&quot;border-color: var(--border-color); text-align: center;&quot;&gt;+ setToken(Token&lt;span style=&quot;text-align: center;&quot;&gt;): void&lt;/span&gt;&lt;br style=&quot;border-color: var(--border-color); text-align: center;&quot;&gt;+ delToken(Token): void" style="text;strokeColor=none;fillColor=none;align=left;verticalAlign=top;spacingLeft=4;spacingRight=4;overflow=hidden;rotatable=0;points=[[0,0.5],[1,0.5]];portConstraint=eastwest;whiteSpace=wrap;html=1;" vertex="1" parent="pRqHBjgA3ks4pkUz7OMV-21">
          <mxGeometry y="60" width="150" height="70" as="geometry" />
        </mxCell>
        <mxCell id="pRqHBjgA3ks4pkUz7OMV-25" value="1" style="endArrow=open;html=1;endSize=12;startArrow=diamondThin;startSize=14;startFill=0;edgeStyle=orthogonalEdgeStyle;align=left;verticalAlign=bottom;rounded=0;entryX=1.001;entryY=0.398;entryDx=0;entryDy=0;entryPerimeter=0;exitX=0.999;exitY=0.967;exitDx=0;exitDy=0;exitPerimeter=0;" edge="1" parent="1" source="Mzm_h6cvFY5Xjswd9-C1-34" target="pRqHBjgA3ks4pkUz7OMV-24">
          <mxGeometry x="-0.7507" relative="1" as="geometry">
            <mxPoint x="870" y="332" as="sourcePoint" />
            <mxPoint x="1029" y="461" as="targetPoint" />
            <Array as="points">
              <mxPoint x="990" y="336" />
              <mxPoint x="990" y="508" />
            </Array>
            <mxPoint as="offset" />
          </mxGeometry>
        </mxCell>
        <mxCell id="pRqHBjgA3ks4pkUz7OMV-26" value="Schedule" style="swimlane;fontStyle=1;align=center;verticalAlign=top;childLayout=stackLayout;horizontal=1;startSize=26;horizontalStack=0;resizeParent=1;resizeParentMax=0;resizeLast=0;collapsible=1;marginBottom=0;whiteSpace=wrap;html=1;" vertex="1" parent="1">
          <mxGeometry x="666" y="238" width="184" height="130" as="geometry" />
        </mxCell>
        <mxCell id="pRqHBjgA3ks4pkUz7OMV-27" value="- listOperation: List&amp;lt;Operation&amp;gt;" style="text;strokeColor=none;fillColor=none;align=left;verticalAlign=top;spacingLeft=4;spacingRight=4;overflow=hidden;rotatable=0;points=[[0,0.5],[1,0.5]];portConstraint=eastwest;whiteSpace=wrap;html=1;" vertex="1" parent="pRqHBjgA3ks4pkUz7OMV-26">
          <mxGeometry y="26" width="184" height="24" as="geometry" />
        </mxCell>
        <mxCell id="pRqHBjgA3ks4pkUz7OMV-28" value="" style="line;strokeWidth=1;fillColor=none;align=left;verticalAlign=middle;spacingTop=-1;spacingLeft=3;spacingRight=3;rotatable=0;labelPosition=right;points=[];portConstraint=eastwest;strokeColor=inherit;" vertex="1" parent="pRqHBjgA3ks4pkUz7OMV-26">
          <mxGeometry y="50" width="184" height="8" as="geometry" />
        </mxCell>
        <mxCell id="pRqHBjgA3ks4pkUz7OMV-29" value="+ addOperation(Operation): void&lt;br&gt;+ getOperation(int): Operation&lt;br style=&quot;border-color: var(--border-color); text-align: center;&quot;&gt;+ setOperation(Operation&lt;span style=&quot;text-align: center;&quot;&gt;): void&lt;/span&gt;&lt;br style=&quot;border-color: var(--border-color); text-align: center;&quot;&gt;+ delOperation(Operation): void" style="text;strokeColor=none;fillColor=none;align=left;verticalAlign=top;spacingLeft=4;spacingRight=4;overflow=hidden;rotatable=0;points=[[0,0.5],[1,0.5]];portConstraint=eastwest;whiteSpace=wrap;html=1;" vertex="1" parent="pRqHBjgA3ks4pkUz7OMV-26">
          <mxGeometry y="58" width="184" height="72" as="geometry" />
        </mxCell>
        <mxCell id="pRqHBjgA3ks4pkUz7OMV-30" value="1" style="endArrow=none;html=1;startArrow=none;startFill=0;edgeStyle=orthogonalEdgeStyle;align=left;verticalAlign=bottom;rounded=0;exitX=0;exitY=0.5;exitDx=0;exitDy=0;entryX=0;entryY=0.25;entryDx=0;entryDy=0;strokeColor=default;endFill=0;" edge="1" parent="1" source="pRqHBjgA3ks4pkUz7OMV-22" target="pRqHBjgA3ks4pkUz7OMV-13">
          <mxGeometry x="-0.7507" relative="1" as="geometry">
            <mxPoint x="836" y="639" as="sourcePoint" />
            <mxPoint x="768" y="550" as="targetPoint" />
            <Array as="points">
              <mxPoint x="800" y="459" />
              <mxPoint x="800" y="580" />
            </Array>
            <mxPoint as="offset" />
          </mxGeometry>
        </mxCell>
        <mxCell id="pRqHBjgA3ks4pkUz7OMV-31" value="" style="endArrow=none;html=1;edgeStyle=orthogonalEdgeStyle;rounded=0;exitX=0;exitY=0.086;exitDx=0;exitDy=0;entryX=1;entryY=0.5;entryDx=0;entryDy=0;exitPerimeter=0;" edge="1" parent="1" source="Mzm_h6cvFY5Xjswd9-C1-33" target="pRqHBjgA3ks4pkUz7OMV-27">
          <mxGeometry relative="1" as="geometry">
            <mxPoint x="1290" y="404" as="sourcePoint" />
            <mxPoint x="1204" y="413" as="targetPoint" />
          </mxGeometry>
        </mxCell>
        <mxCell id="pRqHBjgA3ks4pkUz7OMV-32" value="" style="endArrow=none;html=1;edgeStyle=orthogonalEdgeStyle;rounded=0;entryX=-0.001;entryY=0.094;entryDx=0;entryDy=0;exitX=0.998;exitY=0.811;exitDx=0;exitDy=0;exitPerimeter=0;entryPerimeter=0;" edge="1" parent="1" source="Mzm_h6cvFY5Xjswd9-C1-16" target="pRqHBjgA3ks4pkUz7OMV-21">
          <mxGeometry relative="1" as="geometry">
            <mxPoint x="645" y="445" as="sourcePoint" />
            <mxPoint x="676" y="286" as="targetPoint" />
            <Array as="points">
              <mxPoint x="720" y="523" />
              <mxPoint x="720" y="432" />
            </Array>
          </mxGeometry>
        </mxCell>
      </root>
    </mxGraphModel>
  </diagram>
</mxfile>
